<?xml version="1.0" encoding="utf-8"?>

<!DOCTYPE svg PUBLIC "-//W3C//DTD SVG 1.1//EN" "http://www.w3.org/Graphics/SVG/1.1/DTD/svg11.dtd">
<svg version="1.1" id="Layer_1" xmlns="http://www.w3.org/2000/svg" xmlns:xlink="http://www.w3.org/1999/xlink" x="0px" y="0px"
	 width="271.234px" height="97.43px" viewBox="0 0 271.234 97.43" enable-background="new 0 0 271.234 97.43" xml:space="preserve">
<path fill="#010101" d="M140.642,79.177h-0.135c-3.804-15.905-7.777-29.313-11.651-42.606h-12.607
	c-3.753,13.293-7.482,26.701-11.166,42.606h-0.16c-2.237-16.266-4.535-29.839-6.827-43.492l-15.43,1.747L95.293,97.43h16.977
	c3.043-11.291,6.046-22.598,9.019-36.516h0.125c3.238,13.918,6.632,25.225,9.96,36.516H148.3l12.012-59.998l-13.313-1.747
	C144.841,49.338,142.734,62.911,140.642,79.177"/>
<rect x="163.409" y="36.57" fill="#010101" width="15.19" height="60.864"/>
<polygon fill="#010101" points="185.436,36.565 185.436,97.43 219.099,97.43 219.099,86.054 200.65,86.054 200.65,36.565 "/>
<path fill="#010101" d="M238.893,47.957h4.399c6.622,0,12.302,6.341,12.302,17.381c0,12.272-4.089,20.716-12.822,20.716h-3.879
	V47.957 M223.684,36.565V97.43h19.023c15.119,0,28.527-9.91,28.527-32.172c0-14.699-7.793-28.692-27.942-28.692H223.684"/>
<path fill="#010101" d="M105.197,0v21.135h-0.09C100.493,13.518,95.838,6.776,91.134,0h-3.608v29.644h3.959V8.383h0.07
	c4.625,7.657,9.339,14.444,14.024,21.261h3.558V0H105.197"/>
<path fill="#010101" d="M122.649,5.851h0.06c1.171,4.574,2.217,8.168,3.253,12.066h-6.642
	C120.467,14.019,121.634,10.425,122.649,5.851 M121.193,0l-9.98,29.644h4.284l2.518-8.088h8.693l2.287,8.088h5.536L125.307,0
	H121.193"/>
<polygon fill="#010101" points="132.129,0 132.129,3.974 139.691,3.974 139.691,29.644 144.621,29.644 144.621,3.974 152.193,3.974 
	152.193,0 "/>
<path fill="#010101" d="M162.368,15.295c0,8.343,5.125,14.819,13.243,14.819c2.703,0,5.34-0.726,7.848-1.731V16.666h-4.715v8.724
	c-1.016,0.525-2.047,0.676-3.318,0.676c-4.059,0-8.038-3.964-8.038-10.69c0-6.437,3.454-10.536,8.508-10.536
	c1.802,0,3.784,0.686,5.055,1.497l1.507-3.354c-1.532-1.216-4.134-2.192-6.707-2.192C167.479,0.791,162.368,7.557,162.368,15.295"/>
<polygon fill="#010101" points="188.429,1.271 188.429,29.634 202.487,29.634 202.487,25.82 193.184,25.82 193.184,16.666 
	200.871,16.666 200.871,12.853 193.184,12.853 193.184,5.095 201.046,5.095 201.046,1.271 "/>
<path fill="#010101" d="M209.549,15.055c0-5.24,1.968-10.21,6.662-10.21c4.704,0,6.691,4.97,6.691,10.21
	c0,5.42-1.742,11.016-6.691,11.016C211.291,26.07,209.549,20.475,209.549,15.055 M204.515,15.055
	c0,8.468,4.479,15.064,11.696,15.064s11.717-6.597,11.717-15.064c0-7.953-4.976-14.259-11.717-14.259
	C209.454,0.795,204.515,7.102,204.515,15.055"/>
<path fill="#FDD800" d="M9.779,9.984h48.277v77.681H9.779V9.984z M0,97.465h67.866V0.185H0V97.465z"/>
</svg>
